<svg width="78" height="13" viewBox="0 0 78 13" fill="none" xmlns="http://www.w3.org/2000/svg">
<path d="M1.208 12C0.92 12 0.696 11.9253 0.536 11.776C0.386667 11.616 0.312 11.392 0.312 11.104V1.616C0.312 1.328 0.386667 1.10933 0.536 0.959999C0.696 0.799999 0.92 0.719999 1.208 0.719999H4.296C6.152 0.719999 7.58133 1.20533 8.584 2.176C9.59733 3.136 10.104 4.528 10.104 6.352C10.104 7.25867 9.976 8.064 9.72 8.768C9.464 9.472 9.08533 10.064 8.584 10.544C8.09333 11.0133 7.49067 11.376 6.776 11.632C6.06133 11.8773 5.23467 12 4.296 12H1.208ZM1.976 10.608H4.2C4.904 10.608 5.512 10.5227 6.024 10.352C6.54667 10.1707 6.984 9.904 7.336 9.552C7.688 9.2 7.94933 8.75733 8.12 8.224C8.29067 7.69067 8.376 7.06667 8.376 6.352C8.376 4.93333 8.024 3.872 7.32 3.168C6.62667 2.464 5.58667 2.112 4.2 2.112H1.976V10.608ZM14.6476 12.144C14.1036 12.144 13.613 12.0373 13.1756 11.824C12.749 11.6107 12.413 11.3227 12.1676 10.96C11.9223 10.5973 11.7996 10.1867 11.7996 9.728C11.7996 9.152 11.9436 8.69867 12.2316 8.368C12.5303 8.02667 13.0156 7.78667 13.6876 7.648C14.3703 7.49867 15.2876 7.424 16.4396 7.424H17.1916V8.416H16.4556C15.6876 8.416 15.0796 8.45333 14.6316 8.528C14.1836 8.60267 13.8636 8.73067 13.6716 8.912C13.4903 9.08267 13.3996 9.32267 13.3996 9.632C13.3996 10.0373 13.5383 10.368 13.8156 10.624C14.093 10.8693 14.477 10.992 14.9676 10.992C15.3623 10.992 15.709 10.9013 16.0076 10.72C16.3063 10.528 16.541 10.272 16.7116 9.952C16.893 9.632 16.9836 9.264 16.9836 8.848V7.008C16.9836 6.4 16.8556 5.96267 16.5996 5.696C16.3436 5.42933 15.9223 5.296 15.3356 5.296C14.9943 5.296 14.637 5.33867 14.2636 5.424C13.901 5.50933 13.5223 5.65333 13.1276 5.856C12.9463 5.94133 12.7916 5.968 12.6636 5.936C12.5356 5.904 12.4343 5.83467 12.3596 5.728C12.285 5.61067 12.2423 5.488 12.2316 5.36C12.2316 5.22133 12.2636 5.088 12.3276 4.96C12.4023 4.832 12.525 4.736 12.6956 4.672C13.165 4.448 13.629 4.288 14.0876 4.192C14.5463 4.096 14.9783 4.048 15.3836 4.048C16.0983 4.048 16.685 4.16 17.1436 4.384C17.613 4.608 17.9596 4.94933 18.1836 5.408C18.4076 5.86667 18.5196 6.45867 18.5196 7.184V11.296C18.5196 11.552 18.4556 11.7547 18.3276 11.904C18.1996 12.0427 18.013 12.112 17.7676 12.112C17.533 12.112 17.3463 12.0427 17.2076 11.904C17.069 11.7547 16.9996 11.552 16.9996 11.296V10.256H17.1436C17.0583 10.6507 16.8983 10.992 16.6636 11.28C16.4396 11.5573 16.157 11.7707 15.8156 11.92C15.4743 12.0693 15.085 12.144 14.6476 12.144ZM23.4814 12.144C23.012 12.144 22.5267 12.0907 22.0254 11.984C21.5347 11.8773 21.0814 11.696 20.6654 11.44C20.5267 11.344 20.4307 11.2373 20.3774 11.12C20.324 11.0027 20.3027 10.8853 20.3134 10.768C20.3347 10.64 20.3827 10.5333 20.4574 10.448C20.5427 10.352 20.644 10.2933 20.7614 10.272C20.8894 10.2507 21.0227 10.2773 21.1614 10.352C21.5774 10.5867 21.9774 10.752 22.3614 10.848C22.7454 10.9333 23.124 10.976 23.4974 10.976C24.0627 10.976 24.4894 10.8747 24.7774 10.672C25.0654 10.4693 25.2094 10.1973 25.2094 9.856C25.2094 9.57867 25.1134 9.36533 24.9214 9.216C24.7294 9.056 24.4414 8.93333 24.0574 8.848L22.5374 8.544C21.876 8.40533 21.3747 8.16 21.0334 7.808C20.692 7.456 20.5214 7.008 20.5214 6.464C20.5214 5.97333 20.6547 5.54667 20.9214 5.184C21.188 4.82133 21.5614 4.544 22.0414 4.352C22.5214 4.14933 23.076 4.048 23.7054 4.048C24.1747 4.048 24.6174 4.10667 25.0334 4.224C25.4494 4.34133 25.8334 4.51733 26.1854 4.752C26.324 4.82667 26.4147 4.928 26.4574 5.056C26.5 5.17333 26.5054 5.29067 26.4734 5.408C26.452 5.52533 26.3987 5.632 26.3134 5.728C26.228 5.81333 26.1214 5.86667 25.9934 5.888C25.876 5.89867 25.7427 5.86667 25.5934 5.792C25.2734 5.58933 24.9534 5.44533 24.6334 5.36C24.324 5.27467 24.0147 5.232 23.7054 5.232C23.14 5.232 22.7134 5.33867 22.4254 5.552C22.148 5.75467 22.0094 6.032 22.0094 6.384C22.0094 6.65067 22.0947 6.86933 22.2654 7.04C22.436 7.21067 22.7027 7.33333 23.0654 7.408L24.5854 7.712C25.2787 7.85067 25.8014 8.08533 26.1534 8.416C26.516 8.74667 26.6974 9.19467 26.6974 9.76C26.6974 10.496 26.404 11.0773 25.8174 11.504C25.2307 11.9307 24.452 12.144 23.4814 12.144ZM29.2954 12.112C29.0394 12.112 28.842 12.0427 28.7034 11.904C28.5647 11.7547 28.4954 11.552 28.4954 11.296V1.424C28.4954 1.15733 28.5647 0.954666 28.7034 0.815999C28.842 0.677333 29.0394 0.608 29.2954 0.608C29.5514 0.608 29.7487 0.677333 29.8874 0.815999C30.0367 0.954666 30.1114 1.15733 30.1114 1.424V5.856H29.8874C30.122 5.25867 30.49 4.81067 30.9914 4.512C31.4927 4.20267 32.0687 4.048 32.7194 4.048C33.338 4.048 33.85 4.16533 34.2554 4.4C34.6714 4.624 34.9807 4.97067 35.1834 5.44C35.386 5.89867 35.4874 6.48 35.4874 7.184V11.296C35.4874 11.552 35.418 11.7547 35.2794 11.904C35.1407 12.0427 34.9434 12.112 34.6874 12.112C34.4207 12.112 34.218 12.0427 34.0794 11.904C33.9407 11.7547 33.8714 11.552 33.8714 11.296V7.28C33.8714 6.608 33.738 6.11733 33.4714 5.808C33.2154 5.49867 32.81 5.344 32.2554 5.344C31.6047 5.344 31.082 5.54667 30.6874 5.952C30.3034 6.35733 30.1114 6.90133 30.1114 7.584V11.296C30.1114 11.84 29.8394 12.112 29.2954 12.112ZM41.9061 12.144C41.2235 12.144 40.6315 11.9733 40.1301 11.632C39.6288 11.28 39.2928 10.816 39.1221 10.24L39.2981 9.952V11.296C39.2981 11.552 39.2288 11.7547 39.0901 11.904C38.9515 12.0427 38.7595 12.112 38.5141 12.112C38.2581 12.112 38.0608 12.0427 37.9221 11.904C37.7835 11.7547 37.7141 11.552 37.7141 11.296V1.424C37.7141 1.15733 37.7835 0.954666 37.9221 0.815999C38.0608 0.677333 38.2581 0.608 38.5141 0.608C38.7701 0.608 38.9675 0.677333 39.1061 0.815999C39.2555 0.954666 39.3301 1.15733 39.3301 1.424V5.904H39.1381C39.3088 5.33867 39.6448 4.89067 40.1461 4.56C40.6475 4.21867 41.2341 4.048 41.9061 4.048C42.6101 4.048 43.2181 4.21333 43.7301 4.544C44.2421 4.87467 44.6368 5.33867 44.9141 5.936C45.2021 6.53333 45.3461 7.25333 45.3461 8.096C45.3461 8.91733 45.2021 9.63733 44.9141 10.256C44.6368 10.864 44.2368 11.3333 43.7141 11.664C43.2021 11.984 42.5995 12.144 41.9061 12.144ZM41.5061 10.896C41.9541 10.896 42.3435 10.7893 42.6741 10.576C43.0048 10.3627 43.2608 10.048 43.4421 9.632C43.6235 9.216 43.7141 8.704 43.7141 8.096C43.7141 7.17867 43.5115 6.48533 43.1061 6.016C42.7115 5.54667 42.1781 5.312 41.5061 5.312C41.0688 5.312 40.6795 5.41867 40.3381 5.632C40.0075 5.83467 39.7515 6.144 39.5701 6.56C39.3888 6.976 39.2981 7.488 39.2981 8.096C39.2981 9.00267 39.5008 9.696 39.9061 10.176C40.3115 10.656 40.8448 10.896 41.5061 10.896ZM50.5593 12.144C49.7699 12.144 49.0873 11.9787 48.5113 11.648C47.9459 11.3173 47.5033 10.848 47.1833 10.24C46.8633 9.632 46.7033 8.91733 46.7033 8.096C46.7033 7.46667 46.7939 6.90667 46.9753 6.416C47.1566 5.92533 47.4126 5.504 47.7433 5.152C48.0846 4.78933 48.4899 4.51733 48.9593 4.336C49.4393 4.144 49.9726 4.048 50.5593 4.048C51.3379 4.048 52.0099 4.21333 52.5753 4.544C53.1513 4.87467 53.5993 5.344 53.9193 5.952C54.2393 6.54933 54.3993 7.264 54.3993 8.096C54.3993 8.71467 54.3086 9.27467 54.1273 9.776C53.9459 10.2773 53.6846 10.704 53.3433 11.056C53.0126 11.408 52.6073 11.68 52.1273 11.872C51.6579 12.0533 51.1353 12.144 50.5593 12.144ZM50.5593 10.896C50.9966 10.896 51.3806 10.7893 51.7113 10.576C52.0419 10.3627 52.2979 10.048 52.4793 9.632C52.6713 9.216 52.7673 8.704 52.7673 8.096C52.7673 7.17867 52.5646 6.48533 52.1593 6.016C51.7539 5.54667 51.2206 5.312 50.5593 5.312C50.1113 5.312 49.7219 5.41867 49.3913 5.632C49.0606 5.83467 48.7993 6.144 48.6073 6.56C48.4259 6.976 48.3353 7.488 48.3353 8.096C48.3353 9.00267 48.5379 9.696 48.9433 10.176C49.3486 10.656 49.8873 10.896 50.5593 10.896ZM58.7101 12.144C58.1661 12.144 57.6755 12.0373 57.2381 11.824C56.8115 11.6107 56.4755 11.3227 56.2301 10.96C55.9848 10.5973 55.8621 10.1867 55.8621 9.728C55.8621 9.152 56.0061 8.69867 56.2941 8.368C56.5928 8.02667 57.0781 7.78667 57.7501 7.648C58.4328 7.49867 59.3501 7.424 60.5021 7.424H61.2541V8.416H60.5181C59.7501 8.416 59.1421 8.45333 58.6941 8.528C58.2461 8.60267 57.9261 8.73067 57.7341 8.912C57.5528 9.08267 57.4621 9.32267 57.4621 9.632C57.4621 10.0373 57.6008 10.368 57.8781 10.624C58.1555 10.8693 58.5395 10.992 59.0301 10.992C59.4248 10.992 59.7715 10.9013 60.0701 10.72C60.3688 10.528 60.6035 10.272 60.7741 9.952C60.9555 9.632 61.0461 9.264 61.0461 8.848V7.008C61.0461 6.4 60.9181 5.96267 60.6621 5.696C60.4061 5.42933 59.9848 5.296 59.3981 5.296C59.0568 5.296 58.6995 5.33867 58.3261 5.424C57.9635 5.50933 57.5848 5.65333 57.1901 5.856C57.0088 5.94133 56.8541 5.968 56.7261 5.936C56.5981 5.904 56.4968 5.83467 56.4221 5.728C56.3475 5.61067 56.3048 5.488 56.2941 5.36C56.2941 5.22133 56.3261 5.088 56.3901 4.96C56.4648 4.832 56.5875 4.736 56.7581 4.672C57.2275 4.448 57.6915 4.288 58.1501 4.192C58.6088 4.096 59.0408 4.048 59.4461 4.048C60.1608 4.048 60.7475 4.16 61.2061 4.384C61.6755 4.608 62.0221 4.94933 62.2461 5.408C62.4701 5.86667 62.5821 6.45867 62.5821 7.184V11.296C62.5821 11.552 62.5181 11.7547 62.3901 11.904C62.2621 12.0427 62.0755 12.112 61.8301 12.112C61.5955 12.112 61.4088 12.0427 61.2701 11.904C61.1315 11.7547 61.0621 11.552 61.0621 11.296V10.256H61.2061C61.1208 10.6507 60.9608 10.992 60.7261 11.28C60.5021 11.5573 60.2195 11.7707 59.8781 11.92C59.5368 12.0693 59.1475 12.144 58.7101 12.144ZM65.6239 12.112C65.3572 12.112 65.1545 12.0427 65.0159 11.904C64.8772 11.7547 64.8079 11.552 64.8079 11.296V4.896C64.8079 4.62933 64.8772 4.42667 65.0159 4.288C65.1545 4.14933 65.3465 4.08 65.5919 4.08C65.8479 4.08 66.0399 4.14933 66.1679 4.288C66.3065 4.42667 66.3759 4.62933 66.3759 4.896V6.064H66.2159C66.3865 5.424 66.7012 4.93867 67.1599 4.608C67.6185 4.27733 68.2052 4.08533 68.9199 4.032C69.1119 4.02133 69.2612 4.06933 69.3679 4.176C69.4852 4.28267 69.5492 4.448 69.5599 4.672C69.5812 4.896 69.5332 5.07733 69.4159 5.216C69.2985 5.344 69.1172 5.41867 68.8719 5.44L68.5679 5.472C67.8745 5.536 67.3465 5.75467 66.9839 6.128C66.6212 6.50133 66.4399 7.01333 66.4399 7.664V11.296C66.4399 11.552 66.3705 11.7547 66.2319 11.904C66.1039 12.0427 65.9012 12.112 65.6239 12.112ZM73.6432 12.144C72.9606 12.144 72.3579 11.984 71.8353 11.664C71.3233 11.3333 70.9233 10.864 70.6353 10.256C70.3473 9.63733 70.2033 8.91733 70.2033 8.096C70.2033 7.25333 70.3473 6.53333 70.6353 5.936C70.9233 5.33867 71.3233 4.87467 71.8353 4.544C72.3579 4.21333 72.9606 4.048 73.6432 4.048C74.3259 4.048 74.9126 4.21867 75.4033 4.56C75.9046 4.89067 76.2406 5.33867 76.4113 5.904H76.2353V1.424C76.2353 1.15733 76.3046 0.954666 76.4433 0.815999C76.5819 0.677333 76.7793 0.608 77.0353 0.608C77.2913 0.608 77.4886 0.677333 77.6273 0.815999C77.7766 0.954666 77.8513 1.15733 77.8513 1.424V11.296C77.8513 11.552 77.7819 11.7547 77.6433 11.904C77.5046 12.0427 77.3073 12.112 77.0513 12.112C76.7953 12.112 76.5979 12.0427 76.4593 11.904C76.3206 11.7547 76.2513 11.552 76.2513 11.296V9.888L76.4273 10.24C76.2566 10.816 75.9206 11.28 75.4193 11.632C74.9286 11.9733 74.3366 12.144 73.6432 12.144ZM74.0593 10.896C74.4966 10.896 74.8806 10.7893 75.2113 10.576C75.5419 10.3627 75.7979 10.048 75.9793 9.632C76.1713 9.216 76.2673 8.704 76.2673 8.096C76.2673 7.17867 76.0646 6.48533 75.6593 6.016C75.2539 5.54667 74.7206 5.312 74.0593 5.312C73.6113 5.312 73.2219 5.41867 72.8913 5.632C72.5606 5.83467 72.2993 6.144 72.1073 6.56C71.9259 6.976 71.8353 7.488 71.8353 8.096C71.8353 9.00267 72.0379 9.696 72.4433 10.176C72.8486 10.656 73.3873 10.896 74.0593 10.896Z" fill="#9A9AA9"/>
</svg>
